<?xml version="1.0" encoding="UTF-8"?>
<svg xmlns="http://www.w3.org/2000/svg" xmlns:xlink="http://www.w3.org/1999/xlink" width="2969pt" height="2099pt" viewBox="0 0 2969 2099" version="1.1">
<g id="surface1">
<rect x="0" y="0" width="2969" height="2099" style="fill:rgb(100%,100%,100%);fill-opacity:1;stroke:none;"/>
<path style=" stroke:none;fill-rule:nonzero;fill:rgb(0%,0%,0%);fill-opacity:1;" d="M 0 0 L 500 0 L 500 500 L 0 500 Z M 0 0 "/>
<path style=" stroke:none;fill-rule:nonzero;fill:rgb(0%,0%,0%);fill-opacity:1;" d="M 0 1000 L 500 1000 L 500 1500 L 0 1500 Z M 0 1000 "/>
<path style=" stroke:none;fill-rule:nonzero;fill:rgb(0%,0%,0%);fill-opacity:1;" d="M 0 2000 L 500 2000 L 500 2500 L 0 2500 Z M 0 2000 "/>
<path style=" stroke:none;fill-rule:nonzero;fill:rgb(0%,0%,0%);fill-opacity:1;" d="M 500 500 L 1000 500 L 1000 1000 L 500 1000 Z M 500 500 "/>
<path style=" stroke:none;fill-rule:nonzero;fill:rgb(0%,0%,0%);fill-opacity:1;" d="M 500 1500 L 1000 1500 L 1000 2000 L 500 2000 Z M 500 1500 "/>
<path style=" stroke:none;fill-rule:nonzero;fill:rgb(0%,0%,0%);fill-opacity:1;" d="M 1000 0 L 1500 0 L 1500 500 L 1000 500 Z M 1000 0 "/>
<path style=" stroke:none;fill-rule:nonzero;fill:rgb(0%,0%,0%);fill-opacity:1;" d="M 1000 1000 L 1500 1000 L 1500 1500 L 1000 1500 Z M 1000 1000 "/>
<path style=" stroke:none;fill-rule:nonzero;fill:rgb(0%,0%,0%);fill-opacity:1;" d="M 1000 2000 L 1500 2000 L 1500 2500 L 1000 2500 Z M 1000 2000 "/>
<path style=" stroke:none;fill-rule:nonzero;fill:rgb(0%,0%,0%);fill-opacity:1;" d="M 1500 500 L 2000 500 L 2000 1000 L 1500 1000 Z M 1500 500 "/>
<path style=" stroke:none;fill-rule:nonzero;fill:rgb(0%,0%,0%);fill-opacity:1;" d="M 1500 1500 L 2000 1500 L 2000 2000 L 1500 2000 Z M 1500 1500 "/>
<path style=" stroke:none;fill-rule:nonzero;fill:rgb(0%,0%,0%);fill-opacity:1;" d="M 2000 0 L 2500 0 L 2500 500 L 2000 500 Z M 2000 0 "/>
<path style=" stroke:none;fill-rule:nonzero;fill:rgb(0%,0%,0%);fill-opacity:1;" d="M 2000 1000 L 2500 1000 L 2500 1500 L 2000 1500 Z M 2000 1000 "/>
<path style=" stroke:none;fill-rule:nonzero;fill:rgb(0%,0%,0%);fill-opacity:1;" d="M 2000 2000 L 2500 2000 L 2500 2500 L 2000 2500 Z M 2000 2000 "/>
<path style=" stroke:none;fill-rule:nonzero;fill:rgb(0%,0%,0%);fill-opacity:1;" d="M 2500 500 L 3000 500 L 3000 1000 L 2500 1000 Z M 2500 500 "/>
<path style=" stroke:none;fill-rule:nonzero;fill:rgb(0%,0%,0%);fill-opacity:1;" d="M 2500 1500 L 3000 1500 L 3000 2000 L 2500 2000 Z M 2500 1500 "/>
</g>
</svg>
