<?xml version="1.0" encoding="UTF-8"?>
<svg xmlns="http://www.w3.org/2000/svg" xmlns:xlink="http://www.w3.org/1999/xlink" width="2969pt" height="2099pt" viewBox="0 0 2969 2099" version="1.1">
<g id="surface1">
<rect x="0" y="0" width="2969" height="2099" style="fill:rgb(100%,100%,100%);fill-opacity:1;stroke:none;"/>
<path style=" stroke:none;fill-rule:nonzero;fill:rgb(0%,0%,0%);fill-opacity:1;" d="M 0 0 L 250 0 L 250 250 L 0 250 Z M 0 0 "/>
<path style=" stroke:none;fill-rule:nonzero;fill:rgb(0%,0%,0%);fill-opacity:1;" d="M 0 500 L 250 500 L 250 750 L 0 750 Z M 0 500 "/>
<path style=" stroke:none;fill-rule:nonzero;fill:rgb(0%,0%,0%);fill-opacity:1;" d="M 0 1000 L 250 1000 L 250 1250 L 0 1250 Z M 0 1000 "/>
<path style=" stroke:none;fill-rule:nonzero;fill:rgb(0%,0%,0%);fill-opacity:1;" d="M 0 1500 L 250 1500 L 250 1750 L 0 1750 Z M 0 1500 "/>
<path style=" stroke:none;fill-rule:nonzero;fill:rgb(0%,0%,0%);fill-opacity:1;" d="M 0 2000 L 250 2000 L 250 2250 L 0 2250 Z M 0 2000 "/>
<path style=" stroke:none;fill-rule:nonzero;fill:rgb(0%,0%,0%);fill-opacity:1;" d="M 250 250 L 500 250 L 500 500 L 250 500 Z M 250 250 "/>
<path style=" stroke:none;fill-rule:nonzero;fill:rgb(0%,0%,0%);fill-opacity:1;" d="M 250 750 L 500 750 L 500 1000 L 250 1000 Z M 250 750 "/>
<path style=" stroke:none;fill-rule:nonzero;fill:rgb(0%,0%,0%);fill-opacity:1;" d="M 250 1250 L 500 1250 L 500 1500 L 250 1500 Z M 250 1250 "/>
<path style=" stroke:none;fill-rule:nonzero;fill:rgb(0%,0%,0%);fill-opacity:1;" d="M 250 1750 L 500 1750 L 500 2000 L 250 2000 Z M 250 1750 "/>
<path style=" stroke:none;fill-rule:nonzero;fill:rgb(0%,0%,0%);fill-opacity:1;" d="M 500 0 L 750 0 L 750 250 L 500 250 Z M 500 0 "/>
<path style=" stroke:none;fill-rule:nonzero;fill:rgb(0%,0%,0%);fill-opacity:1;" d="M 500 500 L 750 500 L 750 750 L 500 750 Z M 500 500 "/>
<path style=" stroke:none;fill-rule:nonzero;fill:rgb(0%,0%,0%);fill-opacity:1;" d="M 500 1000 L 750 1000 L 750 1250 L 500 1250 Z M 500 1000 "/>
<path style=" stroke:none;fill-rule:nonzero;fill:rgb(0%,0%,0%);fill-opacity:1;" d="M 500 1500 L 750 1500 L 750 1750 L 500 1750 Z M 500 1500 "/>
<path style=" stroke:none;fill-rule:nonzero;fill:rgb(0%,0%,0%);fill-opacity:1;" d="M 500 2000 L 750 2000 L 750 2250 L 500 2250 Z M 500 2000 "/>
<path style=" stroke:none;fill-rule:nonzero;fill:rgb(0%,0%,0%);fill-opacity:1;" d="M 750 250 L 1000 250 L 1000 500 L 750 500 Z M 750 250 "/>
<path style=" stroke:none;fill-rule:nonzero;fill:rgb(0%,0%,0%);fill-opacity:1;" d="M 750 750 L 1000 750 L 1000 1000 L 750 1000 Z M 750 750 "/>
<path style=" stroke:none;fill-rule:nonzero;fill:rgb(0%,0%,0%);fill-opacity:1;" d="M 750 1250 L 1000 1250 L 1000 1500 L 750 1500 Z M 750 1250 "/>
<path style=" stroke:none;fill-rule:nonzero;fill:rgb(0%,0%,0%);fill-opacity:1;" d="M 750 1750 L 1000 1750 L 1000 2000 L 750 2000 Z M 750 1750 "/>
<path style=" stroke:none;fill-rule:nonzero;fill:rgb(0%,0%,0%);fill-opacity:1;" d="M 1000 0 L 1250 0 L 1250 250 L 1000 250 Z M 1000 0 "/>
<path style=" stroke:none;fill-rule:nonzero;fill:rgb(0%,0%,0%);fill-opacity:1;" d="M 1000 500 L 1250 500 L 1250 750 L 1000 750 Z M 1000 500 "/>
<path style=" stroke:none;fill-rule:nonzero;fill:rgb(0%,0%,0%);fill-opacity:1;" d="M 1000 1000 L 1250 1000 L 1250 1250 L 1000 1250 Z M 1000 1000 "/>
<path style=" stroke:none;fill-rule:nonzero;fill:rgb(0%,0%,0%);fill-opacity:1;" d="M 1000 1500 L 1250 1500 L 1250 1750 L 1000 1750 Z M 1000 1500 "/>
<path style=" stroke:none;fill-rule:nonzero;fill:rgb(0%,0%,0%);fill-opacity:1;" d="M 1000 2000 L 1250 2000 L 1250 2250 L 1000 2250 Z M 1000 2000 "/>
<path style=" stroke:none;fill-rule:nonzero;fill:rgb(0%,0%,0%);fill-opacity:1;" d="M 1250 250 L 1500 250 L 1500 500 L 1250 500 Z M 1250 250 "/>
<path style=" stroke:none;fill-rule:nonzero;fill:rgb(0%,0%,0%);fill-opacity:1;" d="M 1250 750 L 1500 750 L 1500 1000 L 1250 1000 Z M 1250 750 "/>
<path style=" stroke:none;fill-rule:nonzero;fill:rgb(0%,0%,0%);fill-opacity:1;" d="M 1250 1250 L 1500 1250 L 1500 1500 L 1250 1500 Z M 1250 1250 "/>
<path style=" stroke:none;fill-rule:nonzero;fill:rgb(0%,0%,0%);fill-opacity:1;" d="M 1250 1750 L 1500 1750 L 1500 2000 L 1250 2000 Z M 1250 1750 "/>
<path style=" stroke:none;fill-rule:nonzero;fill:rgb(0%,0%,0%);fill-opacity:1;" d="M 1500 0 L 1750 0 L 1750 250 L 1500 250 Z M 1500 0 "/>
<path style=" stroke:none;fill-rule:nonzero;fill:rgb(0%,0%,0%);fill-opacity:1;" d="M 1500 500 L 1750 500 L 1750 750 L 1500 750 Z M 1500 500 "/>
<path style=" stroke:none;fill-rule:nonzero;fill:rgb(0%,0%,0%);fill-opacity:1;" d="M 1500 1000 L 1750 1000 L 1750 1250 L 1500 1250 Z M 1500 1000 "/>
<path style=" stroke:none;fill-rule:nonzero;fill:rgb(0%,0%,0%);fill-opacity:1;" d="M 1500 1500 L 1750 1500 L 1750 1750 L 1500 1750 Z M 1500 1500 "/>
<path style=" stroke:none;fill-rule:nonzero;fill:rgb(0%,0%,0%);fill-opacity:1;" d="M 1500 2000 L 1750 2000 L 1750 2250 L 1500 2250 Z M 1500 2000 "/>
<path style=" stroke:none;fill-rule:nonzero;fill:rgb(0%,0%,0%);fill-opacity:1;" d="M 1750 250 L 2000 250 L 2000 500 L 1750 500 Z M 1750 250 "/>
<path style=" stroke:none;fill-rule:nonzero;fill:rgb(0%,0%,0%);fill-opacity:1;" d="M 1750 750 L 2000 750 L 2000 1000 L 1750 1000 Z M 1750 750 "/>
<path style=" stroke:none;fill-rule:nonzero;fill:rgb(0%,0%,0%);fill-opacity:1;" d="M 1750 1250 L 2000 1250 L 2000 1500 L 1750 1500 Z M 1750 1250 "/>
<path style=" stroke:none;fill-rule:nonzero;fill:rgb(0%,0%,0%);fill-opacity:1;" d="M 1750 1750 L 2000 1750 L 2000 2000 L 1750 2000 Z M 1750 1750 "/>
<path style=" stroke:none;fill-rule:nonzero;fill:rgb(0%,0%,0%);fill-opacity:1;" d="M 2000 0 L 2250 0 L 2250 250 L 2000 250 Z M 2000 0 "/>
<path style=" stroke:none;fill-rule:nonzero;fill:rgb(0%,0%,0%);fill-opacity:1;" d="M 2000 500 L 2250 500 L 2250 750 L 2000 750 Z M 2000 500 "/>
<path style=" stroke:none;fill-rule:nonzero;fill:rgb(0%,0%,0%);fill-opacity:1;" d="M 2000 1000 L 2250 1000 L 2250 1250 L 2000 1250 Z M 2000 1000 "/>
<path style=" stroke:none;fill-rule:nonzero;fill:rgb(0%,0%,0%);fill-opacity:1;" d="M 2000 1500 L 2250 1500 L 2250 1750 L 2000 1750 Z M 2000 1500 "/>
<path style=" stroke:none;fill-rule:nonzero;fill:rgb(0%,0%,0%);fill-opacity:1;" d="M 2000 2000 L 2250 2000 L 2250 2250 L 2000 2250 Z M 2000 2000 "/>
<path style=" stroke:none;fill-rule:nonzero;fill:rgb(0%,0%,0%);fill-opacity:1;" d="M 2250 250 L 2500 250 L 2500 500 L 2250 500 Z M 2250 250 "/>
<path style=" stroke:none;fill-rule:nonzero;fill:rgb(0%,0%,0%);fill-opacity:1;" d="M 2250 750 L 2500 750 L 2500 1000 L 2250 1000 Z M 2250 750 "/>
<path style=" stroke:none;fill-rule:nonzero;fill:rgb(0%,0%,0%);fill-opacity:1;" d="M 2250 1250 L 2500 1250 L 2500 1500 L 2250 1500 Z M 2250 1250 "/>
<path style=" stroke:none;fill-rule:nonzero;fill:rgb(0%,0%,0%);fill-opacity:1;" d="M 2250 1750 L 2500 1750 L 2500 2000 L 2250 2000 Z M 2250 1750 "/>
<path style=" stroke:none;fill-rule:nonzero;fill:rgb(0%,0%,0%);fill-opacity:1;" d="M 2500 0 L 2750 0 L 2750 250 L 2500 250 Z M 2500 0 "/>
<path style=" stroke:none;fill-rule:nonzero;fill:rgb(0%,0%,0%);fill-opacity:1;" d="M 2500 500 L 2750 500 L 2750 750 L 2500 750 Z M 2500 500 "/>
<path style=" stroke:none;fill-rule:nonzero;fill:rgb(0%,0%,0%);fill-opacity:1;" d="M 2500 1000 L 2750 1000 L 2750 1250 L 2500 1250 Z M 2500 1000 "/>
<path style=" stroke:none;fill-rule:nonzero;fill:rgb(0%,0%,0%);fill-opacity:1;" d="M 2500 1500 L 2750 1500 L 2750 1750 L 2500 1750 Z M 2500 1500 "/>
<path style=" stroke:none;fill-rule:nonzero;fill:rgb(0%,0%,0%);fill-opacity:1;" d="M 2500 2000 L 2750 2000 L 2750 2250 L 2500 2250 Z M 2500 2000 "/>
<path style=" stroke:none;fill-rule:nonzero;fill:rgb(0%,0%,0%);fill-opacity:1;" d="M 2750 250 L 3000 250 L 3000 500 L 2750 500 Z M 2750 250 "/>
<path style=" stroke:none;fill-rule:nonzero;fill:rgb(0%,0%,0%);fill-opacity:1;" d="M 2750 750 L 3000 750 L 3000 1000 L 2750 1000 Z M 2750 750 "/>
<path style=" stroke:none;fill-rule:nonzero;fill:rgb(0%,0%,0%);fill-opacity:1;" d="M 2750 1250 L 3000 1250 L 3000 1500 L 2750 1500 Z M 2750 1250 "/>
<path style=" stroke:none;fill-rule:nonzero;fill:rgb(0%,0%,0%);fill-opacity:1;" d="M 2750 1750 L 3000 1750 L 3000 2000 L 2750 2000 Z M 2750 1750 "/>
</g>
</svg>
